<?xml version="1.0" encoding="utf-8"?>
<!-- Generator: Adobe Illustrator 27.5.0, SVG Export Plug-In . SVG Version: 6.00 Build 0)  -->
<svg version="1.1" id="Capa_1" xmlns="http://www.w3.org/2000/svg" xmlns:xlink="http://www.w3.org/1999/xlink" x="0px" y="0px"
	 viewBox="0 0 2834.6 1306" style="enable-background:new 0 0 2834.6 1306;" xml:space="preserve">
<style type="text/css">
	.st0{fill:#FFFFFF;}
	.st1{fill:#1DA7E0;}
</style>
<path class="st0" d="M1670.6,752.9c0-33.9-7.5-59.2-50.7-59.2s-50.8,24-50.8,59.2s9,60,49.8,60S1670.6,789.5,1670.6,752.9
	 M1546.3,752.9c0-42.9,13.5-78.4,66.7-78.4c34.5,0,50.8,12.3,57.1,27.9v-84.7h22.5v212.3h-12.9c-0.6-4.2-2.4-14.7-4.5-28.8
	c-6,16.2-23.4,30.6-61.6,30.6C1560.4,831.9,1546.3,796.5,1546.3,752.9"/>
<path class="st0" d="M1835.5,762.5V752l-52.5,7.2c-31.5,4.5-42.9,11.1-42.9,26.7c0,18.3,15.3,27.9,40.5,27.9
	C1811.2,813.9,1835.5,796.5,1835.5,762.5 M1716.6,786.2c0-27.9,19.5-39.6,63.1-44.7l55.8-6.6c-0.3-27.6-9.3-42.3-48-42.3
	c-35.1,0-44.4,14.4-44.4,37.2h-22.2c0-31.8,13.5-55.2,66.4-55.2c61.8,0,70.9,26.4,70.9,67.3v88.3h-12.6l-4.8-31.2
	c-8.4,18.9-32.7,33-64.9,33S1716.5,817.8,1716.6,786.2"/>
<path class="st0" d="M1892.5,785V695h-21v-14.1l21-5.1v-37.8h21.9v38.4h48.6V695h-47.8V785c0,18.9,7.8,27.6,37.2,27.6
	c3.3,0,6.6,0,10.5-0.3V831c-4.8,0.3-9.3,0.6-13.5,0.6C1909.6,831.6,1892.5,818.4,1892.5,785"/>
<path class="st0" d="M2086.8,762.5V752l-52.5,7.2c-31.5,4.5-42.9,11.1-42.9,26.7c0,18.3,15.3,27.9,40.5,27.9
	C2062.5,813.9,2086.8,796.5,2086.8,762.5 M1967.9,786.2c0-27.9,19.5-39.6,63.1-44.7l55.8-6.6c-0.3-27.6-9.3-42.3-48-42.3
	c-35.1,0-44.4,14.4-44.4,37.2h-22.2c0-31.8,13.5-55.2,66.4-55.2c61.8,0,70.9,26.4,70.9,67.3v88.3h-12.6l-4.8-31.2
	c-8.4,18.9-32.7,33-64.8,33S1967.9,817.8,1967.9,786.2"/>
<path class="st0" d="M1546,1043.8h21.9c-0.3,26.1,14.7,40.8,50.4,40.8c32.7,0,44.1-13.5,44.1-25.2c0-39.3-113.2-15.3-113.2-70.3
	c0-24,17.4-43.5,65.5-43.5s65.8,23.1,65.8,56.8h-21c-0.6-24-12-38.7-45.3-38.7c-36,0-42.3,13.2-42.3,25.2
	c0,35.7,112.3,13.5,112.3,69.4c0,21.9-18,44.7-65.5,44.7C1567.9,1103,1545.1,1082.9,1546,1043.8"/>
<path class="st0" d="M1824.1,1024.3c0-32.1-9.9-59.5-50.7-59.5s-50.8,27-50.8,59.5c0,32.4,9.9,60.1,50.4,60.1
	S1824.1,1057.4,1824.1,1024.3 M1699.7,1024.3c0-40.2,15.3-78.7,73.6-78.7s73.6,38.4,73.6,78.7s-15.3,78.7-73.9,78.7
	S1699.7,1064.9,1699.7,1024.3"/>
<path class="st0" d="M1936.4,1029.7v-82.9h21.9v84.7c0,33,6.9,51.9,46.2,51.9s48-19.2,48-53.2v-83.5h22.5v153.7h-12.6l-4.5-27.6
	c-6,15.6-22.5,29.4-59.4,29.4C1946.3,1102.4,1936.4,1073.8,1936.4,1029.7"/>
<path class="st0" d="M2117.1,1055.8v-90.1h-21v-14.1l21-5.1v-37.8h21.9v38.4h48.6v18.6h-47.8v90.1c0,18.9,7.8,27.6,37.2,27.6
	c3.3,0,6.6,0,10.5-0.3v18.6c-4.8,0.3-9.3,0.6-13.5,0.6C2134.2,1102.4,2117.1,1089.2,2117.1,1055.8"/>
<path class="st0" d="M2207.9,948.6h22.2v153.7h-22.2V948.6z M2202.2,909.6c0-11.4,6.6-13.5,17.1-13.5c9.9,0,16.5,2.1,16.5,13.5
	c0,10.8-6.6,13.8-16.5,13.8C2208.8,923.4,2202.2,920.4,2202.2,909.6"/>
<path class="st0" d="M2377.9,1023.7c0-32.1-9.9-59.5-50.7-59.5s-50.8,27-50.8,59.5s9.9,60,50.4,60S2377.9,1056.7,2377.9,1023.7
	 M2253.6,1023.7c0-40.2,15.3-78.7,73.6-78.7s73.6,38.4,73.6,78.7c0,40.2-15.3,78.7-73.9,78.7S2253.6,1064.2,2253.6,1023.7"/>
<path class="st0" d="M2423.1,948.6h10.5l6.6,27.9c6-15.9,22.5-29.7,59.4-29.7c52.2,0,62.2,29.1,62.2,73.6v82h-22.5v-83.8
	c0-33-6.3-52.5-45.6-52.5s-48.1,18.9-48.1,52.5v83.8h-22.5L2423.1,948.6L2423.1,948.6z"/>
<path class="st0" d="M2583.1,1043.2h21.9c-0.3,26.1,14.7,40.8,50.4,40.8c32.7,0,44.1-13.5,44.1-25.2c0-39.3-113.2-15.3-113.2-70.3
	c0-24,17.4-43.5,65.5-43.5s65.8,23.1,65.8,56.8h-21c-0.6-24-12-38.7-45.3-38.7c-36,0-42.3,13.2-42.3,25.2
	c0,35.7,112.3,13.5,112.3,69.4c0,21.9-18,44.7-65.5,44.7C2605,1102.4,2582.2,1082.3,2583.1,1043.2"/>
<path class="st1" d="M1448.9,501.5l-99.1-57.2l99.1-57.2c12.6-7.3,21.8-18.1,25.9-30.5c8.3-25.2-1.7-52-24.5-65.1L1037.6,53.1
	l-3,5.3v73.9c0,28.1,15.1,54.3,39.5,68.4l239.4,138.2l-73.1,42.2l-202.7-117l-3,5.3v73.5c0,27.9,14.9,54,39,68.1l239.8,138.8
	l-110.8,64l1.9,3.5c15.5,28.2,25.6,61.2,30,98.1l0.7,6.1l215.2-124.2c22.8-13.2,32.8-39.9,24.5-65.1
	C1470.7,519.6,1461.5,508.7,1448.9,501.5"/>
<path class="st0" d="M815.6,730.7c0-28.2,19.6-45.3,84.8-45.3c69.6,0,92.4,29.2,92.4,74.6h156.5c0-122-59.8-185.5-248.9-185.5
	s-255.5,73.6-255.5,165.3c0,181.4,355.5,125,355.5,204.6c0,26.2-23.9,48.4-91.3,48.4c-84.8,0-108.7-32.2-108.7-80.6H636.2
	c0,141.1,83.7,194.5,278.3,194.5c181.5,0,254.4-85.7,254.4-164.3C1168.9,748.9,815.6,809.4,815.6,730.7 M390.6,1097.6h170.7v-514
	H390.6L390.6,1097.6L390.6,1097.6z M113.4,322.7v774.9H283V322.7H113.4z"/>
<path class="st0" d="M380.5,421.2c0-53.3,43.2-96.4,96.4-96.4s96.4,43.2,96.4,96.4s-43.2,96.4-96.4,96.4S380.5,474.5,380.5,421.2"/>
<rect x="1880.5" y="890.1" class="st0" width="22.2" height="212.3"/>
</svg>
